<?xml version="1.0" standalone="no"?>
<!DOCTYPE svg PUBLIC "-//W3C//DTD SVG 1.1//EN" "http://www.w3.org/Graphics/SVG/1.1/DTD/svg11.dtd">
<svg width="20mm" height="20mm" viewBox="-10 -10 20 20" xmlns="http://www.w3.org/2000/svg" version="1.1">
<title>OpenSCAD Model</title>
<path d="
M 10,-0 L 9.9998,-0.0628314 L 9.99921,-0.12566 L 9.99822,-0.188484 L 9.99684,-0.251301 L 9.99507,-0.314108
 L 9.99289,-0.376902 L 9.99033,-0.439681 L 9.98737,-0.502443 L 9.98402,-0.565185 L 9.98027,-0.627905 L 9.97613,-0.6906
 L 9.97159,-0.753268 L 9.96666,-0.815906 L 9.96134,-0.878512 L 9.95562,-0.941083 L 9.94951,-1.00362 L 9.94301,-1.06611
 L 9.93611,-1.12856 L 9.92883,-1.19097 L 9.92115,-1.25333 L 9.91308,-1.31564 L 9.90461,-1.3779 L 9.89576,-1.44011
 L 9.88652,-1.50226 L 9.87688,-1.56434 L 9.86686,-1.62637 L 9.85645,-1.68833 L 9.84564,-1.75023 L 9.83445,-1.81206
 L 9.82287,-1.87381 L 9.81091,-1.93549 L 9.79855,-1.9971 L 9.78581,-2.05863 L 9.77268,-2.12007 L 9.75917,-2.18143
 L 9.74527,-2.24271 L 9.73099,-2.30389 L 9.71632,-2.36499 L 9.70127,-2.42599 L 9.68583,-2.4869 L 9.67001,-2.54771
 L 9.65382,-2.60842 L 9.63724,-2.66902 L 9.62028,-2.72952 L 9.60294,-2.78991 L 9.58522,-2.85019 L 9.56712,-2.91036
 L 9.54865,-2.97042 L 9.52979,-3.03035 L 9.51057,-3.09017 L 9.49096,-3.14987 L 9.47098,-3.20944 L 9.45063,-3.26888
 L 9.42991,-3.3282 L 9.40881,-3.38738 L 9.38734,-3.44643 L 9.3655,-3.50534 L 9.34329,-3.56412 L 9.32071,-3.62275
 L 9.29776,-3.68125 L 9.27445,-3.73959 L 9.25077,-3.79779 L 9.22673,-3.85584 L 9.20232,-3.91374 L 9.17755,-3.97148
 L 9.15241,-4.02906 L 9.12692,-4.08649 L 9.10106,-4.14376 L 9.07484,-4.20086 L 9.04827,-4.25779 L 9.02134,-4.31456
 L 8.99405,-4.37116 L 8.96641,-4.42758 L 8.93841,-4.48383 L 8.91007,-4.5399 L 8.88136,-4.5958 L 8.85231,-4.65151
 L 8.82291,-4.70704 L 8.79316,-4.76238 L 8.76307,-4.81754 L 8.73262,-4.8725 L 8.70184,-4.92727 L 8.67071,-4.98185
 L 8.63923,-5.03623 L 8.60742,-5.09041 L 8.57527,-5.1444 L 8.54277,-5.19817 L 8.50994,-5.25175 L 8.47678,-5.30511
 L 8.44328,-5.35827 L 8.40945,-5.41121 L 8.37528,-5.46394 L 8.34078,-5.51646 L 8.30596,-5.56876 L 8.27081,-5.62083
 L 8.23533,-5.67269 L 8.19952,-5.72432 L 8.16339,-5.77573 L 8.12694,-5.8269 L 8.09017,-5.87785 L 8.05308,-5.92857
 L 8.01567,-5.97905 L 7.97794,-6.0293 L 7.9399,-6.0793 L 7.90155,-6.12907 L 7.86288,-6.1786 L 7.82391,-6.22788
 L 7.78462,-6.27691 L 7.74503,-6.3257 L 7.70513,-6.37424 L 7.66493,-6.42253 L 7.62443,-6.47056 L 7.58362,-6.51834
 L 7.54251,-6.56586 L 7.50111,-6.61312 L 7.45941,-6.66012 L 7.41742,-6.70686 L 7.37513,-6.75333 L 7.33255,-6.79953
 L 7.28969,-6.84547 L 7.24653,-6.89114 L 7.20309,-6.93653 L 7.15936,-6.98165 L 7.11536,-7.0265 L 7.07107,-7.07107
 L 7.0265,-7.11536 L 6.98165,-7.15936 L 6.93653,-7.20309 L 6.89114,-7.24653 L 6.84547,-7.28969 L 6.79953,-7.33255
 L 6.75333,-7.37513 L 6.70686,-7.41742 L 6.66012,-7.45941 L 6.61312,-7.50111 L 6.56586,-7.54251 L 6.51834,-7.58362
 L 6.47056,-7.62443 L 6.42253,-7.66493 L 6.37424,-7.70513 L 6.3257,-7.74503 L 6.27691,-7.78462 L 6.22788,-7.82391
 L 6.1786,-7.86288 L 6.12907,-7.90155 L 6.0793,-7.9399 L 6.0293,-7.97794 L 5.97905,-8.01567 L 5.92857,-8.05308
 L 5.87785,-8.09017 L 5.8269,-8.12694 L 5.77573,-8.16339 L 5.72432,-8.19952 L 5.67269,-8.23533 L 5.62083,-8.27081
 L 5.56876,-8.30596 L 5.51646,-8.34078 L 5.46394,-8.37528 L 5.41121,-8.40945 L 5.35827,-8.44328 L 5.30511,-8.47678
 L 5.25175,-8.50994 L 5.19817,-8.54277 L 5.1444,-8.57527 L 5.09041,-8.60742 L 5.03623,-8.63923 L 4.98185,-8.67071
 L 4.92727,-8.70184 L 4.8725,-8.73262 L 4.81754,-8.76307 L 4.76238,-8.79316 L 4.70704,-8.82291 L 4.65151,-8.85231
 L 4.5958,-8.88136 L 4.5399,-8.91007 L 4.48383,-8.93841 L 4.42758,-8.96641 L 4.37116,-8.99405 L 4.31456,-9.02134
 L 4.25779,-9.04827 L 4.20086,-9.07484 L 4.14376,-9.10106 L 4.08649,-9.12692 L 4.02906,-9.15241 L 3.97148,-9.17755
 L 3.91374,-9.20232 L 3.85584,-9.22673 L 3.79779,-9.25077 L 3.73959,-9.27445 L 3.68125,-9.29776 L 3.62275,-9.32071
 L 3.56412,-9.34329 L 3.50534,-9.3655 L 3.44643,-9.38734 L 3.38738,-9.40881 L 3.3282,-9.42991 L 3.26888,-9.45063
 L 3.20944,-9.47098 L 3.14987,-9.49096 L 3.09017,-9.51057 L 3.03035,-9.52979 L 2.97042,-9.54865 L 2.91036,-9.56712
 L 2.85019,-9.58522 L 2.78991,-9.60294 L 2.72952,-9.62028 L 2.66902,-9.63724 L 2.60842,-9.65382 L 2.54771,-9.67001
 L 2.4869,-9.68583 L 2.42599,-9.70127 L 2.36499,-9.71632 L 2.30389,-9.73099 L 2.24271,-9.74527 L 2.18143,-9.75917
 L 2.12007,-9.77268 L 2.05863,-9.78581 L 1.9971,-9.79855 L 1.93549,-9.81091 L 1.87381,-9.82287 L 1.81206,-9.83445
 L 1.75023,-9.84564 L 1.68833,-9.85645 L 1.62637,-9.86686 L 1.56434,-9.87688 L 1.50226,-9.88652 L 1.44011,-9.89576
 L 1.3779,-9.90461 L 1.31564,-9.91308 L 1.25333,-9.92115 L 1.19097,-9.92883 L 1.12856,-9.93611 L 1.06611,-9.94301
 L 1.00362,-9.94951 L 0.941083,-9.95562 L 0.878512,-9.96134 L 0.815906,-9.96666 L 0.753268,-9.97159 L 0.6906,-9.97613
 L 0.627905,-9.98027 L 0.565185,-9.98402 L 0.502443,-9.98737 L 0.439681,-9.99033 L 0.376902,-9.99289 L 0.314108,-9.99507
 L 0.251301,-9.99684 L 0.188484,-9.99822 L 0.12566,-9.99921 L 0.0628314,-9.9998 L 0,-10 L -0.0628314,-9.9998
 L -0.12566,-9.99921 L -0.188484,-9.99822 L -0.251301,-9.99684 L -0.314108,-9.99507 L -0.376902,-9.99289 L -0.439681,-9.99033
 L -0.502443,-9.98737 L -0.565185,-9.98402 L -0.627905,-9.98027 L -0.6906,-9.97613 L -0.753268,-9.97159 L -0.815906,-9.96666
 L -0.878512,-9.96134 L -0.941083,-9.95562 L -1.00362,-9.94951 L -1.06611,-9.94301 L -1.12856,-9.93611 L -1.19097,-9.92883
 L -1.25333,-9.92115 L -1.31564,-9.91308 L -1.3779,-9.90461 L -1.44011,-9.89576 L -1.50226,-9.88652 L -1.56434,-9.87688
 L -1.62637,-9.86686 L -1.68833,-9.85645 L -1.75023,-9.84564 L -1.81206,-9.83445 L -1.87381,-9.82287 L -1.93549,-9.81091
 L -1.9971,-9.79855 L -2.05863,-9.78581 L -2.12007,-9.77268 L -2.18143,-9.75917 L -2.24271,-9.74527 L -2.30389,-9.73099
 L -2.36499,-9.71632 L -2.42599,-9.70127 L -2.4869,-9.68583 L -2.54771,-9.67001 L -2.60842,-9.65382 L -2.66902,-9.63724
 L -2.72952,-9.62028 L -2.78991,-9.60294 L -2.85019,-9.58522 L -2.91036,-9.56712 L -2.97042,-9.54865 L -3.03035,-9.52979
 L -3.09017,-9.51057 L -3.14987,-9.49096 L -3.20944,-9.47098 L -3.26888,-9.45063 L -3.3282,-9.42991 L -3.38738,-9.40881
 L -3.44643,-9.38734 L -3.50534,-9.3655 L -3.56412,-9.34329 L -3.62275,-9.32071 L -3.68125,-9.29776 L -3.73959,-9.27445
 L -3.79779,-9.25077 L -3.85584,-9.22673 L -3.91374,-9.20232 L -3.97148,-9.17755 L -4.02906,-9.15241 L -4.08649,-9.12692
 L -4.14376,-9.10106 L -4.20086,-9.07484 L -4.25779,-9.04827 L -4.31456,-9.02134 L -4.37116,-8.99405 L -4.42758,-8.96641
 L -4.48383,-8.93841 L -4.5399,-8.91007 L -4.5958,-8.88136 L -4.65151,-8.85231 L -4.70704,-8.82291 L -4.76238,-8.79316
 L -4.81754,-8.76307 L -4.8725,-8.73262 L -4.92727,-8.70184 L -4.98185,-8.67071 L -5.03623,-8.63923 L -5.09041,-8.60742
 L -5.1444,-8.57527 L -5.19817,-8.54277 L -5.25175,-8.50994 L -5.30511,-8.47678 L -5.35827,-8.44328 L -5.41121,-8.40945
 L -5.46394,-8.37528 L -5.51646,-8.34078 L -5.56876,-8.30596 L -5.62083,-8.27081 L -5.67269,-8.23533 L -5.72432,-8.19952
 L -5.77573,-8.16339 L -5.8269,-8.12694 L -5.87785,-8.09017 L -5.92857,-8.05308 L -5.97905,-8.01567 L -6.0293,-7.97794
 L -6.0793,-7.9399 L -6.12907,-7.90155 L -6.1786,-7.86288 L -6.22788,-7.82391 L -6.27691,-7.78462 L -6.3257,-7.74503
 L -6.37424,-7.70513 L -6.42253,-7.66493 L -6.47056,-7.62443 L -6.51834,-7.58362 L -6.56586,-7.54251 L -6.61312,-7.50111
 L -6.66012,-7.45941 L -6.70686,-7.41742 L -6.75333,-7.37513 L -6.79953,-7.33255 L -6.84547,-7.28969 L -6.89114,-7.24653
 L -6.93653,-7.20309 L -6.98165,-7.15936 L -7.0265,-7.11536 L -7.07107,-7.07107 L -7.11536,-7.0265 L -7.15936,-6.98165
 L -7.20309,-6.93653 L -7.24653,-6.89114 L -7.28969,-6.84547 L -7.33255,-6.79953 L -7.37513,-6.75333 L -7.41742,-6.70686
 L -7.45941,-6.66012 L -7.50111,-6.61312 L -7.54251,-6.56586 L -7.58362,-6.51834 L -7.62443,-6.47056 L -7.66493,-6.42253
 L -7.70513,-6.37424 L -7.74503,-6.3257 L -7.78462,-6.27691 L -7.82391,-6.22788 L -7.86288,-6.1786 L -7.90155,-6.12907
 L -7.9399,-6.0793 L -7.97794,-6.0293 L -8.01567,-5.97905 L -8.05308,-5.92857 L -8.09017,-5.87785 L -8.12694,-5.8269
 L -8.16339,-5.77573 L -8.19952,-5.72432 L -8.23533,-5.67269 L -8.27081,-5.62083 L -8.30596,-5.56876 L -8.34078,-5.51646
 L -8.37528,-5.46394 L -8.40945,-5.41121 L -8.44328,-5.35827 L -8.47678,-5.30511 L -8.50994,-5.25175 L -8.54277,-5.19817
 L -8.57527,-5.1444 L -8.60742,-5.09041 L -8.63923,-5.03623 L -8.67071,-4.98185 L -8.70184,-4.92727 L -8.73262,-4.8725
 L -8.76307,-4.81754 L -8.79316,-4.76238 L -8.82291,-4.70704 L -8.85231,-4.65151 L -8.88136,-4.5958 L -8.91007,-4.5399
 L -8.93841,-4.48383 L -8.96641,-4.42758 L -8.99405,-4.37116 L -9.02134,-4.31456 L -9.04827,-4.25779 L -9.07484,-4.20086
 L -9.10106,-4.14376 L -9.12692,-4.08649 L -9.15241,-4.02906 L -9.17755,-3.97148 L -9.20232,-3.91374 L -9.22673,-3.85584
 L -9.25077,-3.79779 L -9.27445,-3.73959 L -9.29776,-3.68125 L -9.32071,-3.62275 L -9.34329,-3.56412 L -9.3655,-3.50534
 L -9.38734,-3.44643 L -9.40881,-3.38738 L -9.42991,-3.3282 L -9.45063,-3.26888 L -9.47098,-3.20944 L -9.49096,-3.14987
 L -9.51057,-3.09017 L -9.52979,-3.03035 L -9.54865,-2.97042 L -9.56712,-2.91036 L -9.58522,-2.85019 L -9.60294,-2.78991
 L -9.62028,-2.72952 L -9.63724,-2.66902 L -9.65382,-2.60842 L -9.67001,-2.54771 L -9.68583,-2.4869 L -9.70127,-2.42599
 L -9.71632,-2.36499 L -9.73099,-2.30389 L -9.74527,-2.24271 L -9.75917,-2.18143 L -9.77268,-2.12007 L -9.78581,-2.05863
 L -9.79855,-1.9971 L -9.81091,-1.93549 L -9.82287,-1.87381 L -9.83445,-1.81206 L -9.84564,-1.75023 L -9.85645,-1.68833
 L -9.86686,-1.62637 L -9.87688,-1.56434 L -9.88652,-1.50226 L -9.89576,-1.44011 L -9.90461,-1.3779 L -9.91308,-1.31564
 L -9.92115,-1.25333 L -9.92883,-1.19097 L -9.93611,-1.12856 L -9.94301,-1.06611 L -9.94951,-1.00362 L -9.95562,-0.941083
 L -9.96134,-0.878512 L -9.96666,-0.815906 L -9.97159,-0.753268 L -9.97613,-0.6906 L -9.98027,-0.627905 L -9.98402,-0.565185
 L -9.98737,-0.502443 L -9.99033,-0.439681 L -9.99289,-0.376902 L -9.99507,-0.314108 L -9.99684,-0.251301 L -9.99822,-0.188484
 L -9.99921,-0.12566 L -9.9998,-0.0628314 L -10,0 L -9.9998,0.0628314 L -9.99921,0.12566 L -9.99822,0.188484
 L -9.99684,0.251301 L -9.99507,0.314108 L -9.99289,0.376902 L -9.99033,0.439681 L -9.98737,0.502443 L -9.98402,0.565185
 L -9.98027,0.627905 L -9.97613,0.6906 L -9.97159,0.753268 L -9.96666,0.815906 L -9.96134,0.878512 L -9.95562,0.941083
 L -9.94951,1.00362 L -9.94301,1.06611 L -9.93611,1.12856 L -9.92883,1.19097 L -9.92115,1.25333 L -9.91308,1.31564
 L -9.90461,1.3779 L -9.89576,1.44011 L -9.88652,1.50226 L -9.87688,1.56434 L -9.86686,1.62637 L -9.85645,1.68833
 L -9.84564,1.75023 L -9.83445,1.81206 L -9.82287,1.87381 L -9.81091,1.93549 L -9.79855,1.9971 L -9.78581,2.05863
 L -9.77268,2.12007 L -9.75917,2.18143 L -9.74527,2.24271 L -9.73099,2.30389 L -9.71632,2.36499 L -9.70127,2.42599
 L -9.68583,2.4869 L -9.67001,2.54771 L -9.65382,2.60842 L -9.63724,2.66902 L -9.62028,2.72952 L -9.60294,2.78991
 L -9.58522,2.85019 L -9.56712,2.91036 L -9.54865,2.97042 L -9.52979,3.03035 L -9.51057,3.09017 L -9.49096,3.14987
 L -9.47098,3.20944 L -9.45063,3.26888 L -9.42991,3.3282 L -9.40881,3.38738 L -9.38734,3.44643 L -9.3655,3.50534
 L -9.34329,3.56412 L -9.32071,3.62275 L -9.29776,3.68125 L -9.27445,3.73959 L -9.25077,3.79779 L -9.22673,3.85584
 L -9.20232,3.91374 L -9.17755,3.97148 L -9.15241,4.02906 L -9.12692,4.08649 L -9.10106,4.14376 L -9.07484,4.20086
 L -9.04827,4.25779 L -9.02134,4.31456 L -8.99405,4.37116 L -8.96641,4.42758 L -8.93841,4.48383 L -8.91007,4.5399
 L -8.88136,4.5958 L -8.85231,4.65151 L -8.82291,4.70704 L -8.79316,4.76238 L -8.76307,4.81754 L -8.73262,4.8725
 L -8.70184,4.92727 L -8.67071,4.98185 L -8.63923,5.03623 L -8.60742,5.09041 L -8.57527,5.1444 L -8.54277,5.19817
 L -8.50994,5.25175 L -8.47678,5.30511 L -8.44328,5.35827 L -8.40945,5.41121 L -8.37528,5.46394 L -8.34078,5.51646
 L -8.30596,5.56876 L -8.27081,5.62083 L -8.23533,5.67269 L -8.19952,5.72432 L -8.16339,5.77573 L -8.12694,5.8269
 L -8.09017,5.87785 L -8.05308,5.92857 L -8.01567,5.97905 L -7.97794,6.0293 L -7.9399,6.0793 L -7.90155,6.12907
 L -7.86288,6.1786 L -7.82391,6.22788 L -7.78462,6.27691 L -7.74503,6.3257 L -7.70513,6.37424 L -7.66493,6.42253
 L -7.62443,6.47056 L -7.58362,6.51834 L -7.54251,6.56586 L -7.50111,6.61312 L -7.45941,6.66012 L -7.41742,6.70686
 L -7.37513,6.75333 L -7.33255,6.79953 L -7.28969,6.84547 L -7.24653,6.89114 L -7.20309,6.93653 L -7.15936,6.98165
 L -7.11536,7.0265 L -7.07107,7.07107 L -7.0265,7.11536 L -6.98165,7.15936 L -6.93653,7.20309 L -6.89114,7.24653
 L -6.84547,7.28969 L -6.79953,7.33255 L -6.75333,7.37513 L -6.70686,7.41742 L -6.66012,7.45941 L -6.61312,7.50111
 L -6.56586,7.54251 L -6.51834,7.58362 L -6.47056,7.62443 L -6.42253,7.66493 L -6.37424,7.70513 L -6.3257,7.74503
 L -6.27691,7.78462 L -6.22788,7.82391 L -6.1786,7.86288 L -6.12907,7.90155 L -6.0793,7.9399 L -6.0293,7.97794
 L -5.97905,8.01567 L -5.92857,8.05308 L -5.87785,8.09017 L -5.8269,8.12694 L -5.77573,8.16339 L -5.72432,8.19952
 L -5.67269,8.23533 L -5.62083,8.27081 L -5.56876,8.30596 L -5.51646,8.34078 L -5.46394,8.37528 L -5.41121,8.40945
 L -5.35827,8.44328 L -5.30511,8.47678 L -5.25175,8.50994 L -5.19817,8.54277 L -5.1444,8.57527 L -5.09041,8.60742
 L -5.03623,8.63923 L -4.98185,8.67071 L -4.92727,8.70184 L -4.8725,8.73262 L -4.81754,8.76307 L -4.76238,8.79316
 L -4.70704,8.82291 L -4.65151,8.85231 L -4.5958,8.88136 L -4.5399,8.91007 L -4.48383,8.93841 L -4.42758,8.96641
 L -4.37116,8.99405 L -4.31456,9.02134 L -4.25779,9.04827 L -4.20086,9.07484 L -4.14376,9.10106 L -4.08649,9.12692
 L -4.02906,9.15241 L -3.97148,9.17755 L -3.91374,9.20232 L -3.85584,9.22673 L -3.79779,9.25077 L -3.73959,9.27445
 L -3.68125,9.29776 L -3.62275,9.32071 L -3.56412,9.34329 L -3.50534,9.3655 L -3.44643,9.38734 L -3.38738,9.40881
 L -3.3282,9.42991 L -3.26888,9.45063 L -3.20944,9.47098 L -3.14987,9.49096 L -3.09017,9.51057 L -3.03035,9.52979
 L -2.97042,9.54865 L -2.91036,9.56712 L -2.85019,9.58522 L -2.78991,9.60294 L -2.72952,9.62028 L -2.66902,9.63724
 L -2.60842,9.65382 L -2.54771,9.67001 L -2.4869,9.68583 L -2.42599,9.70127 L -2.36499,9.71632 L -2.30389,9.73099
 L -2.24271,9.74527 L -2.18143,9.75917 L -2.12007,9.77268 L -2.05863,9.78581 L -1.9971,9.79855 L -1.93549,9.81091
 L -1.87381,9.82287 L -1.81206,9.83445 L -1.75023,9.84564 L -1.68833,9.85645 L -1.62637,9.86686 L -1.56434,9.87688
 L -1.50226,9.88652 L -1.44011,9.89576 L -1.3779,9.90461 L -1.31564,9.91308 L -1.25333,9.92115 L -1.19097,9.92883
 L -1.12856,9.93611 L -1.06611,9.94301 L -1.00362,9.94951 L -0.941083,9.95562 L -0.878512,9.96134 L -0.815906,9.96666
 L -0.753268,9.97159 L -0.6906,9.97613 L -0.627905,9.98027 L -0.565185,9.98402 L -0.502443,9.98737 L -0.439681,9.99033
 L -0.376902,9.99289 L -0.314108,9.99507 L -0.251301,9.99684 L -0.188484,9.99822 L -0.12566,9.99921 L -0.0628314,9.9998
 L -0,10 L 0.0628314,9.9998 L 0.12566,9.99921 L 0.188484,9.99822 L 0.251301,9.99684 L 0.314108,9.99507
 L 0.376902,9.99289 L 0.439681,9.99033 L 0.502443,9.98737 L 0.565185,9.98402 L 0.627905,9.98027 L 0.6906,9.97613
 L 0.753268,9.97159 L 0.815906,9.96666 L 0.878512,9.96134 L 0.941083,9.95562 L 1.00362,9.94951 L 1.06611,9.94301
 L 1.12856,9.93611 L 1.19097,9.92883 L 1.25333,9.92115 L 1.31564,9.91308 L 1.3779,9.90461 L 1.44011,9.89576
 L 1.50226,9.88652 L 1.56434,9.87688 L 1.62637,9.86686 L 1.68833,9.85645 L 1.75023,9.84564 L 1.81206,9.83445
 L 1.87381,9.82287 L 1.93549,9.81091 L 1.9971,9.79855 L 2.05863,9.78581 L 2.12007,9.77268 L 2.18143,9.75917
 L 2.24271,9.74527 L 2.30389,9.73099 L 2.36499,9.71632 L 2.42599,9.70127 L 2.4869,9.68583 L 2.54771,9.67001
 L 2.60842,9.65382 L 2.66902,9.63724 L 2.72952,9.62028 L 2.78991,9.60294 L 2.85019,9.58522 L 2.91036,9.56712
 L 2.97042,9.54865 L 3.03035,9.52979 L 3.09017,9.51057 L 3.14987,9.49096 L 3.20944,9.47098 L 3.26888,9.45063
 L 3.3282,9.42991 L 3.38738,9.40881 L 3.44643,9.38734 L 3.50534,9.3655 L 3.56412,9.34329 L 3.62275,9.32071
 L 3.68125,9.29776 L 3.73959,9.27445 L 3.79779,9.25077 L 3.85584,9.22673 L 3.91374,9.20232 L 3.97148,9.17755
 L 4.02906,9.15241 L 4.08649,9.12692 L 4.14376,9.10106 L 4.20086,9.07484 L 4.25779,9.04827 L 4.31456,9.02134
 L 4.37116,8.99405 L 4.42758,8.96641 L 4.48383,8.93841 L 4.5399,8.91007 L 4.5958,8.88136 L 4.65151,8.85231
 L 4.70704,8.82291 L 4.76238,8.79316 L 4.81754,8.76307 L 4.8725,8.73262 L 4.92727,8.70184 L 4.98185,8.67071
 L 5.03623,8.63923 L 5.09041,8.60742 L 5.1444,8.57527 L 5.19817,8.54277 L 5.25175,8.50994 L 5.30511,8.47678
 L 5.35827,8.44328 L 5.41121,8.40945 L 5.46394,8.37528 L 5.51646,8.34078 L 5.56876,8.30596 L 5.62083,8.27081
 L 5.67269,8.23533 L 5.72432,8.19952 L 5.77573,8.16339 L 5.8269,8.12694 L 5.87785,8.09017 L 5.92857,8.05308
 L 5.97905,8.01567 L 6.0293,7.97794 L 6.0793,7.9399 L 6.12907,7.90155 L 6.1786,7.86288 L 6.22788,7.82391
 L 6.27691,7.78462 L 6.3257,7.74503 L 6.37424,7.70513 L 6.42253,7.66493 L 6.47056,7.62443 L 6.51834,7.58362
 L 6.56586,7.54251 L 6.61312,7.50111 L 6.66012,7.45941 L 6.70686,7.41742 L 6.75333,7.37513 L 6.79953,7.33255
 L 6.84547,7.28969 L 6.89114,7.24653 L 6.93653,7.20309 L 6.98165,7.15936 L 7.0265,7.11536 L 7.07107,7.07107
 L 7.11536,7.0265 L 7.15936,6.98165 L 7.20309,6.93653 L 7.24653,6.89114 L 7.28969,6.84547 L 7.33255,6.79953
 L 7.37513,6.75333 L 7.41742,6.70686 L 7.45941,6.66012 L 7.50111,6.61312 L 7.54251,6.56586 L 7.58362,6.51834
 L 7.62443,6.47056 L 7.66493,6.42253 L 7.70513,6.37424 L 7.74503,6.3257 L 7.78462,6.27691 L 7.82391,6.22788
 L 7.86288,6.1786 L 7.90155,6.12907 L 7.9399,6.0793 L 7.97794,6.0293 L 8.01567,5.97905 L 8.05308,5.92857
 L 8.09017,5.87785 L 8.12694,5.8269 L 8.16339,5.77573 L 8.19952,5.72432 L 8.23533,5.67269 L 8.27081,5.62083
 L 8.30596,5.56876 L 8.34078,5.51646 L 8.37528,5.46394 L 8.40945,5.41121 L 8.44328,5.35827 L 8.47678,5.30511
 L 8.50994,5.25175 L 8.54277,5.19817 L 8.57527,5.1444 L 8.60742,5.09041 L 8.63923,5.03623 L 8.67071,4.98185
 L 8.70184,4.92727 L 8.73262,4.8725 L 8.76307,4.81754 L 8.79316,4.76238 L 8.82291,4.70704 L 8.85231,4.65151
 L 8.88136,4.5958 L 8.91007,4.5399 L 8.93841,4.48383 L 8.96641,4.42758 L 8.99405,4.37116 L 9.02134,4.31456
 L 9.04827,4.25779 L 9.07484,4.20086 L 9.10106,4.14376 L 9.12692,4.08649 L 9.15241,4.02906 L 9.17755,3.97148
 L 9.20232,3.91374 L 9.22673,3.85584 L 9.25077,3.79779 L 9.27445,3.73959 L 9.29776,3.68125 L 9.32071,3.62275
 L 9.34329,3.56412 L 9.3655,3.50534 L 9.38734,3.44643 L 9.40881,3.38738 L 9.42991,3.3282 L 9.45063,3.26888
 L 9.47098,3.20944 L 9.49096,3.14987 L 9.51057,3.09017 L 9.52979,3.03035 L 9.54865,2.97042 L 9.56712,2.91036
 L 9.58522,2.85019 L 9.60294,2.78991 L 9.62028,2.72952 L 9.63724,2.66902 L 9.65382,2.60842 L 9.67001,2.54771
 L 9.68583,2.4869 L 9.70127,2.42599 L 9.71632,2.36499 L 9.73099,2.30389 L 9.74527,2.24271 L 9.75917,2.18143
 L 9.77268,2.12007 L 9.78581,2.05863 L 9.79855,1.9971 L 9.81091,1.93549 L 9.82287,1.87381 L 9.83445,1.81206
 L 9.84564,1.75023 L 9.85645,1.68833 L 9.86686,1.62637 L 9.87688,1.56434 L 9.88652,1.50226 L 9.89576,1.44011
 L 9.90461,1.3779 L 9.91308,1.31564 L 9.92115,1.25333 L 9.92883,1.19097 L 9.93611,1.12856 L 9.94301,1.06611
 L 9.94951,1.00362 L 9.95562,0.941083 L 9.96134,0.878512 L 9.96666,0.815906 L 9.97159,0.753268 L 9.97613,0.6906
 L 9.98027,0.627905 L 9.98402,0.565185 L 9.98737,0.502443 L 9.99033,0.439681 L 9.99289,0.376902 L 9.99507,0.314108
 L 9.99684,0.251301 L 9.99822,0.188484 L 9.99921,0.12566 L 9.9998,0.0628314 z
" stroke="black" fill="lightgray" stroke-width="0.5"/>
</svg>
